<?xml version="1.0" encoding="UTF-8" standalone="no"?>
<!-- Generator: Adobe Illustrator 28.2.0, SVG Export Plug-In . SVG Version: 6.00 Build 0)  -->

<svg
   version="1.1"
   id="Layer_1"
   x="0px"
   y="0px"
   viewBox="0 0 119.2 94.5"
   style="enable-background:new 0 0 119.2 94.5;"
   xml:space="preserve"
   sodipodi:docname="movement-3.svg"
   inkscape:version="1.3.2 (091e20e, 2023-11-25)"
   xmlns:inkscape="http://www.inkscape.org/namespaces/inkscape"
   xmlns:sodipodi="http://sodipodi.sourceforge.net/DTD/sodipodi-0.dtd"
   xmlns:xlink="http://www.w3.org/1999/xlink"
   xmlns="http://www.w3.org/2000/svg"
   xmlns:svg="http://www.w3.org/2000/svg"><defs
   id="defs1" /><sodipodi:namedview
   id="namedview1"
   pagecolor="#ffffff"
   bordercolor="#000000"
   borderopacity="0.25"
   inkscape:showpageshadow="2"
   inkscape:pageopacity="0.0"
   inkscape:pagecheckerboard="0"
   inkscape:deskcolor="#d1d1d1"
   inkscape:zoom="2.2446495"
   inkscape:cx="88.432515"
   inkscape:cy="53.683214"
   inkscape:window-width="1336"
   inkscape:window-height="612"
   inkscape:window-x="176"
   inkscape:window-y="38"
   inkscape:window-maximized="0"
   inkscape:current-layer="Layer_1" />
<style
   type="text/css"
   id="style1">
	.st0{fill:#FFDA34;}
</style>
<a
   xlink:href="100"
   id="a1"
   transform="matrix(0.53321056,0,0,0.60399659,29.008023,22.64783)">
	<path
   id="logoMark_00000095339908509459064580000001002162838798737087_"
   class="st0"
   d="m 105.7,46 c -1.1,0 -2.1,-0.2 -3.1,-0.5 h -0.1 c -0.1,0 -0.2,-0.1 -0.4,-0.1 -0.3,-0.1 -0.6,-0.3 -1,-0.5 L 101,44.8 c -1.3,-0.7 -2.5,-1.7 -3.4,-2.9 -2.8,-3.7 -2.8,-8.8 0,-12.4 1.1,-1.5 2.7,-2.6 4.4,-3.3 l 0.2,-0.1 c 0.5,-0.2 0.9,-0.3 1.2,-0.4 l 0.3,-0.1 c 0.7,-0.1 1.4,-0.2 2.1,-0.2 4.2,0 7.7,-1.3 10.1,-3.7 2.2,-2.3 3.4,-5.4 3.4,-9 V 0 H 93.7 v 8.5 c 0,1.6 0,3.3 0,4.9 0,3.3 -1.9,7.9 -5.4,9 -2.2,0.7 -5,-0.4 -7.3,-0.1 -1.9,0.2 -3.8,0.9 -5.4,1.9 -3.3,2.1 -5.5,5.6 -6,9.5 -0.2,1.5 -0.1,2.6 0,3.4 0.1,0.9 0.1,1.2 -0.2,2.1 -0.6,1.8 -2,3.4 -3.8,4.6 -1.8,1.2 -3.9,1.9 -5.8,1.9 h -0.2 -0.2 c -2,0 -4,-0.7 -5.8,-1.9 -1.8,-1.2 -3.1,-2.9 -3.8,-4.6 -0.3,-0.9 -0.3,-1.2 -0.2,-2.1 0.1,-0.8 0.2,-1.9 0,-3.4 -0.4,-3.9 -2.7,-7.4 -6,-9.5 -1.6,-1 -3.5,-1.7 -5.4,-1.9 -2.3,-0.3 -5.1,0.8 -7.3,0.1 -3.5,-1.2 -5.4,-5.7 -5.4,-9 0,-1.6 0,-3.3 0,-4.9 V 0 H 0.1 v 12.9 c 0,3.6 1.1,6.7 3.4,9 2.4,2.4 5.9,3.7 10.1,3.7 0.7,0 1.4,0.1 2.1,0.2 l 0.3,0.1 c 0.3,0 0.7,0.2 1.2,0.4 l 0.2,0.1 c 1.7,0.7 3.2,1.8 4.4,3.3 2.8,3.6 2.8,8.7 0,12.4 -0.9,1.2 -2.1,2.2 -3.4,2.9 h -0.3 c -0.4,0.2 -0.7,0.3 -1,0.5 -0.1,0 -0.3,0.1 -0.4,0.1 h -0.1 c -1,0.3 -2.1,0.5 -3.1,0.5 C 5.4,46 0,51 0,58.4 c 0,5.8 2.6,8.8 4.8,10.3 2.7,1.8 6,2.3 9.1,2.6 h 0.2 c 0.8,0.1 1.5,0.3 2.3,0.6 l 0.4,0.1 h 0.1 c 2.1,0.7 3.9,2.2 4.9,4.1 0.6,1.1 1,2.5 1.2,4 0.1,0.6 0.1,1.2 0.1,1.7 0,0.4 0.1,0.9 0.1,1.4 V 94.3 H 48.5 V 81.4 c 0,-3.4 -1.3,-6.6 -3.7,-9 C 44.7,72.3 44.6,72.2 44.5,72.1 44.3,71.9 44.1,71.8 44,71.7 L 43.9,71.6 C 41.2,69.2 37.6,69.2 35,69.1 v 0 c -0.4,0 -0.8,0 -1.2,0 L 33.6,69 32.8,68.8 32,68.6 31.1,68.3 c -0.9,-0.4 -1.7,-0.9 -2.5,-1.6 l -0.2,-0.1 c -2.4,-2.1 -3.5,-4.7 -3.6,-7.9 0,-2.3 0.7,-4.5 2.1,-6.3 1.4,-1.8 3.3,-3.1 5.4,-3.7 2.2,-0.6 6.2,-0.7 8.1,0 3.5,1.1 6.1,4.4 6.3,8.1 0,0.3 0,0.6 0,1 0,1.1 -0.1,2.6 0.5,4.5 1.8,5.2 6.7,8.8 12.2,8.8 5.6,0 10.5,-3.6 12.2,-8.8 0.6,-1.9 0.6,-3.4 0.5,-4.5 0,-0.4 0,-0.7 0,-1 0.2,-3.7 2.7,-7 6.3,-8.1 1.9,-0.6 6,-0.6 8.1,0 2.1,0.6 4.1,2 5.4,3.7 1.4,1.8 2.1,4 2.1,6.3 0,3.2 -1.2,5.8 -3.6,7.9 l -0.2,0.1 c -0.7,0.6 -1.6,1.2 -2.5,1.6 l -0.9,0.3 -0.8,0.2 -0.3,0.2 -0.4,0.1 c -0.4,0 -0.8,0 -1.2,0 v 0 c -2.6,0 -6.2,0.1 -8.9,2.5 L 75,71.7 c -0.1,0.1 -0.3,0.3 -0.5,0.4 -0.1,0.1 -0.2,0.2 -0.3,0.3 -2.4,2.4 -3.7,5.7 -3.7,9 V 94.5 H 95.8 V 83.4 c 0,-0.5 0.1,-1 0.1,-1.4 0,-0.6 0.1,-1.1 0.1,-1.7 0.2,-1.5 0.6,-2.9 1.2,-4 1.1,-1.9 2.9,-3.4 4.9,-4.1 h 0.1 l 0.4,-0.1 c 0.8,-0.3 1.5,-0.5 2.3,-0.6 h 0.2 c 3.1,-0.3 6.4,-0.8 9.1,-2.6 2.2,-1.5 4.8,-4.5 4.8,-10.3 C 119.2,51 113.8,46 105.7,46 Z" />
</a>
<path
   fill-rule="evenodd"
   clip-rule="evenodd"
   d="M 59.299053,90.399929 C 82.779693,90.598528 101.94889,71.440845 102.1151,47.609594 102.28131,23.77857 83.381573,4.2986714 59.900943,4.1000716 36.420523,3.9014737 17.251113,23.059382 17.084903,46.890407 c -0.16621,23.83125 18.73373,43.310924 42.21415,43.509522 z m -0.0158,2.271048 C 83.999583,92.880028 104.17778,72.713957 104.35273,47.62852 104.52769,22.543195 84.633153,2.0380742 59.916783,1.8290226 35.200523,1.6199719 15.022223,21.786156 14.847263,46.87148 c -0.17495,25.085438 19.71969,45.590447 44.43595,45.799497 z"
   fill="#4ca3ff"
   fill-opacity="0.4"
   id="path1"
   style="fill:#fff736;fill-opacity:0.944915;stroke-width:5.63587" /><path
   style="fill:#000000;fill-opacity:0.911017;stroke-width:0.445504"
   d="M 51.232943,89.330027 C 42.435384,87.385184 35.338862,83.308583 28.930155,76.518182 14.941083,61.695935 13.46549,38.863168 25.40846,22.024845 28.011986,18.35415 34.168377,12.644472 37.909561,10.430835 44.546758,6.5036433 50.068662,4.8916532 57.915501,4.5905717 62.585294,4.4113928 64.527665,4.5382071 67.943806,5.245304 83.615616,8.4891628 96.357979,20.67903 100.51568,36.40489 c 1.18719,4.490385 1.59123,12.776183 0.84795,17.389549 -2.900926,18.005412 -15.92217,31.797307 -33.564795,35.551283 -3.762009,0.800477 -12.913137,0.791807 -16.565892,-0.01569 z M 55.019726,74.76255 c 0,-7.654122 -1.301757,-9.708959 -6.701627,-10.578583 -1.525167,-0.245619 -3.167716,-0.803769 -3.65011,-1.240331 -4.192327,-3.794 -1.835128,-10.819685 3.630131,-10.819685 3.378703,0 5.385094,2.15492 5.385094,5.783736 0,3.579293 2.203691,6.680236 5.44276,7.65883 3.227413,0.975066 7.595334,-1.7738 8.107783,-5.102485 0.121485,-0.789125 0.340789,-2.377444 0.487333,-3.529602 0.183307,-1.441174 0.662232,-2.518513 1.53485,-3.452655 1.077108,-1.153048 1.594173,-1.357575 3.428553,-1.356158 2.932636,0.0023 4.750982,1.17482 5.708036,3.680824 1.525761,3.995154 -1.129424,8.345058 -5.094898,8.346804 -2.31732,0.001 -4.534174,1.305197 -5.678379,3.340589 -0.879193,1.563968 -1.002664,2.422534 -1.009097,7.016685 l -0.0073,5.234671 h 6.867999 6.867999 l 0.148686,-5.3387 c 0.146313,-5.2534 0.17004,-5.360026 1.485199,-6.673318 0.939118,-0.937786 2.054174,-1.470613 3.750149,-1.792004 4.890269,-0.926715 6.808292,-3.190623 6.808292,-8.036056 0,-4.500044 -2.168597,-7.004898 -6.583206,-7.603971 -5.078989,-0.689235 -7.174674,-5.030731 -4.679194,-9.693582 0.655181,-1.224217 2.416698,-2.103736 4.950756,-2.471901 1.110605,-0.161356 2.654565,-0.679714 3.43103,-1.151908 2.39534,-1.456696 2.963491,-3.121756 3.156653,-9.251135 L 92.9792,22.275193 H 85.805303 78.63143 v 5.145418 c 0,7.355137 -0.827541,8.665201 -5.47363,8.665201 -4.38447,0 -6.703171,2.589954 -7.38436,8.248233 -0.314966,2.616228 -0.560448,3.209122 -1.779783,4.298599 -2.433534,2.174366 -6.109089,1.433823 -7.71876,-1.555161 -0.286667,-0.532309 -0.574485,-2.005527 -0.639595,-3.273818 -0.140485,-2.736488 -1.497134,-5.616436 -3.160369,-6.708954 -0.726244,-0.477042 -2.414162,-0.873731 -4.29289,-1.008899 -4.459517,-0.320847 -4.897429,-1.009267 -5.190921,-8.160379 l -0.222752,-5.427488 -7.062814,-0.122923 -7.062813,-0.122923 0.157504,5.468969 c 0.128953,4.47763 0.319013,5.74317 1.048511,6.981664 1.285569,2.182555 2.850801,3.175024 5.60069,3.551236 3.080363,0.421425 4.611333,1.440069 5.499131,3.658896 0.900523,2.250626 0.878665,2.882296 -0.180487,5.215937 -0.958366,2.111577 -2.841557,3.213134 -5.493096,3.213134 -1.702599,0 -3.998466,1.390908 -5.385275,3.262572 -0.731953,0.987856 -0.928749,1.896185 -0.916959,4.232287 0.0252,4.992677 1.781947,7.057226 6.85421,8.055133 4.329097,0.851696 5.382134,2.755298 5.382134,9.729412 v 4.123851 h 6.90531 6.90531 z"
   id="path3" /></svg>
